<svg width="122" height="24" viewBox="0 0 122 24" fill="none" xmlns="http://www.w3.org/2000/svg">
<path d="M15.6683 8.30301L18.6791 5.17799C16.641 1.84463 12.7348 1.01129 11.0364 1.01129C6.96029 0.802959 3.93409 3.52867 2.9305 4.91757C-0.505104 10.1146 1.38652 16.5496 2.9305 18.9802C4.82162 22.3543 9.10642 23.1469 11.0364 23.1469C15.6683 23.3552 18.0615 20.4559 18.6791 18.9802L15.6683 15.5947C14.5567 17.8864 12.1172 18.2857 11.0364 18.1989C8.81306 18.1989 7.17644 16.2892 6.63605 15.3343C4.96856 12.2093 5.94126 9.34468 6.63605 8.30301C7.74772 6.428 10.0328 5.95924 11.0364 5.95924C13.6303 5.75091 15.2051 7.43495 15.6683 8.30301Z" fill="#4198FF" stroke="#4198FF"/>
<path fill-rule="evenodd" clip-rule="evenodd" d="M27.1509 6.49305C24.5262 6.31944 19.2766 7.74306 19.2766 14.8264C19.1994 17.6042 20.6662 23.1598 27.1509 23.1598C29.8529 23.2466 35.3031 21.7015 35.4884 14.8264C35.5656 12.0486 34.0062 6.49305 27.1509 6.49305ZM27.151 10.6598C28.2317 10.6598 30.3933 11.4931 30.3933 14.8265C30.3933 16.3022 29.7448 19.2015 27.151 18.9932C26.1474 18.9932 24.1402 18.1598 24.1402 14.8265C24.063 13.5244 24.5571 10.8681 27.151 10.6598Z" fill="#4198FF"/>
<path d="M19.2766 14.8264L19.7766 14.8403V14.8264H19.2766ZM27.1509 6.49305L27.1179 6.99196L27.1344 6.99305H27.1509V6.49305ZM27.1509 23.1598L27.167 22.6601L27.159 22.6598H27.1509V23.1598ZM35.4884 14.8264L34.9886 14.8126L34.9886 14.813L35.4884 14.8264ZM27.151 10.6598V10.1598H27.1309L27.1109 10.1614L27.151 10.6598ZM27.151 18.9932L27.191 18.4948L27.171 18.4932H27.151V18.9932ZM24.1402 14.8265H24.6402V14.8117L24.6393 14.7969L24.1402 14.8265ZM19.7766 14.8264C19.7766 11.4247 21.0282 9.45457 22.5278 8.33963C24.053 7.20571 25.8967 6.91118 27.1179 6.99196L27.1839 5.99414C25.7804 5.90131 23.6869 6.23179 21.9312 7.53712C20.1499 8.86144 18.7766 11.1448 18.7766 14.8264H19.7766ZM27.1509 22.6598C24.0784 22.6598 22.2446 21.3566 21.168 19.7558C20.0721 18.1263 19.74 16.1525 19.7765 14.8403L18.7768 14.8126C18.7361 16.2781 19.0988 18.471 20.3382 20.3138C21.5968 22.1853 23.7388 23.6598 27.1509 23.6598V22.6598ZM34.9886 14.813C34.9 18.0995 33.5642 20.0568 31.9722 21.1974C30.3558 22.3555 28.432 22.7007 27.167 22.6601L27.1349 23.6596C28.5719 23.7057 30.7242 23.3218 32.5546 22.0103C34.4096 20.6812 35.8915 18.4285 35.9882 14.8399L34.9886 14.813ZM27.1509 6.99305C30.4208 6.99305 32.3711 8.30693 33.5122 9.90823C34.6724 11.5364 35.0249 13.506 34.9886 14.8126L35.9882 14.8403C36.0291 13.3691 35.6406 11.172 34.3266 9.32792C32.9934 7.45697 30.7363 5.99305 27.1509 5.99305V6.99305ZM30.8933 14.8265C30.8933 13.0433 30.3104 11.8602 29.517 11.1261C28.7382 10.4055 27.8015 10.1598 27.151 10.1598V11.1598C27.5812 11.1598 28.2657 11.3308 28.8379 11.8601C29.3954 12.376 29.8933 13.2763 29.8933 14.8265H30.8933ZM27.1109 19.4916C27.8599 19.5517 28.4947 19.3874 29.0166 19.0617C29.5324 18.7398 29.91 18.2781 30.1828 17.7825C30.7227 16.8022 30.8933 15.6174 30.8933 14.8265H29.8933C29.8933 15.5112 29.7397 16.514 29.3068 17.3002C29.0934 17.6879 28.8224 18.0041 28.4872 18.2134C28.1579 18.4188 27.739 18.5388 27.191 18.4948L27.1109 19.4916ZM23.6402 14.8265C23.6402 16.5984 24.1769 17.7773 24.9163 18.514C25.6449 19.24 26.5281 19.4932 27.151 19.4932V18.4932C26.7702 18.4932 26.148 18.3297 25.6222 17.8057C25.107 17.2924 24.6402 16.388 24.6402 14.8265H23.6402ZM27.1109 10.1614C25.6111 10.2819 24.7014 11.1269 24.1992 12.1045C23.7099 13.0571 23.5987 14.1413 23.6411 14.8561L24.6393 14.7969C24.6045 14.2096 24.7018 13.3147 25.0887 12.5614C25.4627 11.8333 26.097 11.2461 27.191 11.1582L27.1109 10.1614Z" fill="#4198FF"/>
<rect x="38.5187" y="1" width="5.09513" height="22.396" fill="#4198FF"/>
<rect x="46.8562" y="1" width="5.09513" height="22.396" fill="#4198FF"/>
<path fill-rule="evenodd" clip-rule="evenodd" d="M63.4799 13.7801C63.4799 12.912 62.9241 11.1759 60.7008 11.1759C59.8516 11.1759 57.8753 11.3842 56.7636 12.2176L54.9108 8.83212C55.6828 8.05086 57.9679 6.54044 60.9324 6.74877C63.4027 6.74877 68.3435 8.10295 68.3435 13.5197V23.4156H64.1747V21.0718C64.0975 21.853 63.063 23.4156 59.5428 23.4156C58.1532 23.4156 55.1888 22.7385 54.4476 20.0301C53.9073 18.3808 54.4476 14.0405 57.9216 13.7801L63.4799 13.7801ZM63.2483 16.3842H60.7007C60.1603 16.3842 59.0796 16.6967 59.0796 17.9467C59.0024 18.728 59.3112 20.2384 61.1639 20.0301C62.0131 20.0405 63.6652 19.3259 63.4799 16.3842H63.2483Z" fill="#4198FF"/>
<path d="M63.4799 13.7801L63.4799 14.2801L63.9799 14.2801V13.7801H63.4799ZM56.7636 12.2176L56.325 12.4576L56.6019 12.9636L57.0635 12.6176L56.7636 12.2176ZM54.9108 8.83212L54.5552 8.48068L54.2935 8.74553L54.4722 9.07216L54.9108 8.83212ZM60.9324 6.74877L60.8973 7.24754L60.9148 7.24877L60.9324 7.24877L60.9324 6.74877ZM68.3435 23.4156V23.9156H68.8435V23.4156H68.3435ZM64.1747 23.4156H63.6747V23.9156H64.1747V23.4156ZM64.1747 21.0718H64.6747L63.6771 21.0226L64.1747 21.0718ZM54.4476 20.0301L54.9299 19.8981L54.9266 19.8862L54.9228 19.8744L54.4476 20.0301ZM57.9216 13.7801L57.9216 13.2801L57.9029 13.2801L57.8842 13.2815L57.9216 13.7801ZM59.0796 17.9467L59.5771 17.9959L59.5796 17.9714V17.9467H59.0796ZM61.1639 20.0301L61.1701 19.5301L61.139 19.5297L61.1081 19.5332L61.1639 20.0301ZM63.4799 16.3842L63.9789 16.3528L63.9494 15.8842H63.4799V16.3842ZM60.7008 11.6759C61.6627 11.6759 62.2088 12.0421 62.5276 12.4571C62.8644 12.8954 62.9799 13.4329 62.9799 13.7801H63.9799C63.9799 13.2592 63.8175 12.4945 63.3206 11.8478C62.8057 11.1777 61.9621 10.6759 60.7008 10.6759V11.6759ZM57.0635 12.6176C57.5336 12.2653 58.2222 12.0239 58.934 11.8734C59.637 11.7248 60.3086 11.6759 60.7008 11.6759V10.6759C60.2437 10.6759 59.5026 10.7311 58.7272 10.895C57.9607 11.0571 57.1053 11.3365 56.4637 11.8175L57.0635 12.6176ZM54.4722 9.07216L56.325 12.4576L57.2022 11.9775L55.3495 8.59208L54.4722 9.07216ZM60.9674 6.25C57.8244 6.02912 55.4038 7.62187 54.5552 8.48068L55.2665 9.18356C55.9619 8.47986 58.1115 7.05176 60.8973 7.24754L60.9674 6.25ZM68.8435 13.5197C68.8435 10.6285 67.511 8.78505 65.8391 7.68522C64.194 6.60312 62.239 6.24877 60.9324 6.24877L60.9324 7.24877C62.0961 7.24877 63.8466 7.57151 65.2895 8.52068C66.7055 9.45212 67.8435 10.9941 67.8435 13.5197H68.8435ZM68.8435 23.4156V13.5197H67.8435V23.4156H68.8435ZM64.1747 23.9156H68.3435V22.9156H64.1747V23.9156ZM63.6747 21.0718V23.4156H64.6747V21.0718H63.6747ZM59.5428 23.9156C63.1925 23.9156 64.559 22.2677 64.6723 21.121L63.6771 21.0226C63.6361 21.4383 62.9336 22.9156 59.5428 22.9156V23.9156ZM53.9654 20.1621C54.3827 21.6873 55.4291 22.6316 56.527 23.185C57.6152 23.7335 58.7831 23.9156 59.5428 23.9156V22.9156C58.9129 22.9156 57.9038 22.7591 56.9771 22.292C56.0601 21.8297 55.2537 21.0812 54.9299 19.8981L53.9654 20.1621ZM57.8842 13.2815C55.893 13.4307 54.7578 14.7664 54.2117 16.207C53.6751 17.6226 53.662 19.2381 53.9725 20.1858L54.9228 19.8744C54.6929 19.1728 54.6798 17.7935 55.1468 16.5615C55.6043 15.3545 56.4763 14.3898 57.959 14.2787L57.8842 13.2815ZM63.4799 13.2801L57.9216 13.2801L57.9216 14.2801L63.4799 14.2801L63.4799 13.2801ZM60.7007 16.8842H63.2483V15.8842H60.7007V16.8842ZM59.5796 17.9467C59.5796 17.4926 59.7636 17.2525 59.9726 17.1075C60.2078 16.9442 60.5069 16.8842 60.7007 16.8842V15.8842C60.3542 15.8842 59.8427 15.9804 59.4024 16.2859C58.9359 16.6097 58.5796 17.1508 58.5796 17.9467H59.5796ZM61.1081 19.5332C60.3456 19.6189 59.9977 19.358 59.8142 19.0823C59.5997 18.7602 59.5456 18.3151 59.5771 17.9959L58.582 17.8975C58.5363 18.3596 58.5981 19.0603 58.9818 19.6366C59.3966 20.2594 60.1295 20.6495 61.2198 20.5269L61.1081 19.5332ZM62.9809 16.4156C63.0674 17.7898 62.7219 18.558 62.34 18.9777C61.95 19.4063 61.4669 19.5337 61.1701 19.5301L61.1578 20.53C61.7101 20.5368 62.4777 20.3122 63.0796 19.6507C63.6897 18.9803 64.0776 17.9203 63.9789 16.3528L62.9809 16.4156ZM63.2483 16.8842H63.4799V15.8842H63.2483V16.8842Z" fill="#4198FF"/>
<path fill-rule="evenodd" clip-rule="evenodd" d="M76.5005 1H71.4054V23.1356H76.5005V21.3126C76.8093 21.9203 77.9827 23.1356 80.2061 23.1356C82.6764 23.3092 87.6172 21.8856 87.6172 14.8022C87.6944 11.9376 86.3202 6.26045 80.2061 6.46879C79.3569 6.46879 77.4269 6.83337 76.5005 8.29172V1ZM76.5005 14.8022C76.5005 13.5001 77.1027 10.896 79.5113 10.896C80.5921 10.8092 82.7999 11.4689 82.9852 14.8022C82.9852 16.1911 82.2904 18.9168 79.5113 18.7085C78.5849 18.7085 76.6858 17.9273 76.5005 14.8022Z" fill="#4198FF"/>
<path d="M71.4054 1V0.5H70.9054V1H71.4054ZM76.5005 1H77.0005V0.5H76.5005V1ZM71.4054 23.1356H70.9054V23.6356H71.4054V23.1356ZM76.5005 23.1356V23.6356H77.0005V23.1356H76.5005ZM76.5005 21.3126L76.9463 21.0861L76.0005 21.3126H76.5005ZM80.2061 23.1356L80.2411 22.6368L80.2236 22.6356H80.2061V23.1356ZM87.6172 14.8022L87.1172 14.7887V14.8022H87.6172ZM80.2061 6.46879V6.96879H80.2146L80.2231 6.9685L80.2061 6.46879ZM76.5005 8.29172H76.0005V10.0113L76.9226 8.55981L76.5005 8.29172ZM79.5113 10.896V11.396H79.5313L79.5513 11.3944L79.5113 10.896ZM76.5005 14.8022H76.0005V14.817L76.0014 14.8318L76.5005 14.8022ZM82.9852 14.8022H83.4852V14.7884L83.4845 14.7745L82.9852 14.8022ZM79.5113 18.7085L79.5486 18.2099L79.53 18.2085H79.5113V18.7085ZM71.4054 1.5H76.5005V0.5H71.4054V1.5ZM71.9054 23.1356V1H70.9054V23.1356H71.9054ZM76.5005 22.6356H71.4054V23.6356H76.5005V22.6356ZM76.0005 21.3126V23.1356H77.0005V21.3126H76.0005ZM80.2061 22.6356C78.1761 22.6356 77.1722 21.5306 76.9463 21.0861L76.0548 21.5392C76.4465 22.3099 77.7894 23.6356 80.2061 23.6356V22.6356ZM87.1172 14.8022C87.1172 18.2155 85.9339 20.1874 84.5281 21.2979C83.1003 22.4257 81.3778 22.7167 80.2411 22.6368L80.171 23.6343C81.5048 23.7281 83.4878 23.394 85.1479 22.0826C86.83 20.7539 88.1172 18.4722 88.1172 14.8022H87.1172ZM80.2231 6.9685C83.0884 6.87086 84.7988 8.13644 85.8098 9.74875C86.8413 11.3939 87.1541 13.4242 87.1174 14.7887L88.117 14.8156C88.1574 13.3156 87.8217 11.075 86.657 9.21751C85.4717 7.32719 83.4379 5.85837 80.189 5.96908L80.2231 6.9685ZM76.9226 8.55981C77.3105 7.94912 77.9213 7.54863 78.5632 7.29949C79.2061 7.04992 79.8391 6.96879 80.2061 6.96879V5.96879C79.7238 5.96879 78.9673 6.06994 78.2013 6.36726C77.4343 6.66499 76.6169 7.17596 76.0785 8.02362L76.9226 8.55981ZM76.0005 1V8.29172H77.0005V1H76.0005ZM79.5113 10.396C78.0828 10.396 77.1825 11.1865 76.6655 12.1182C76.1613 13.0267 76.0005 14.0932 76.0005 14.8022H77.0005C77.0005 14.2091 77.1408 13.3226 77.5399 12.6034C77.926 11.9075 78.5311 11.396 79.5113 11.396V10.396ZM83.4845 14.7745C83.3854 12.9915 82.7364 11.8511 81.8973 11.1768C81.0743 10.5154 80.121 10.3454 79.4712 10.3976L79.5513 11.3944C79.9823 11.3597 80.6734 11.4761 81.2709 11.9563C81.8522 12.4235 82.3998 13.2796 82.486 14.83L83.4845 14.7745ZM79.4739 19.2071C81.0714 19.3269 82.1071 18.5856 82.7137 17.6204C83.2995 16.6885 83.4852 15.5591 83.4852 14.8022H82.4852C82.4852 15.4343 82.3235 16.3621 81.8671 17.0883C81.4316 17.7811 80.7303 18.2985 79.5486 18.2099L79.4739 19.2071ZM76.0014 14.8318C76.1001 16.4975 76.6622 17.601 77.3827 18.2889C78.0932 18.9672 78.9248 19.2085 79.5113 19.2085V18.2085C79.1714 18.2085 78.5902 18.0592 78.0732 17.5656C77.5663 17.0816 77.0862 16.232 76.9996 14.7726L76.0014 14.8318Z" fill="#4198FF"/>
<path fill-rule="evenodd" clip-rule="evenodd" d="M115.168 2.83302C115.168 2.4704 115.072 2.11601 114.893 1.8146C114.713 1.51319 114.459 1.27829 114.161 1.13956C113.863 1.00084 113.535 0.964508 113.219 1.03516C112.902 1.10582 112.612 1.28029 112.383 1.53655L108.22 6.2161C107.949 6.51233 107.778 6.90525 107.737 7.32746C107.696 7.74968 107.786 8.1749 107.993 8.53019C108.142 8.78594 108.345 8.99596 108.584 9.1412C108.823 9.28643 109.09 9.36229 109.362 9.36189H113.53L113.567 9.36434C113.828 9.37187 114.089 9.38819 114.35 9.41326C114.879 9.46218 115.303 9.53557 115.475 9.60651C116.334 9.95443 117.066 10.614 117.554 11.4813C118.043 12.3485 118.261 13.374 118.174 14.3961C118.165 14.5125 118.165 14.6296 118.174 14.7459C118.232 15.4239 118.156 16.1077 117.951 16.7486C117.746 17.3895 117.418 17.9716 116.99 18.4533C116.561 18.9349 116.044 19.3043 115.474 19.535C114.904 19.7656 114.296 19.8519 113.693 19.7875C113.641 19.7822 113.589 19.7798 113.536 19.7802C112.732 19.7802 111.853 19.2909 110.784 18.107C109.716 16.923 108.692 15.3086 107.56 13.5106L107.513 13.4323C106.438 11.7298 105.259 9.85846 103.967 8.42256C102.67 6.98665 101.03 5.72686 99.0022 5.69506C97.9385 5.59255 96.8678 5.75101 95.8639 6.15948C94.86 6.56795 93.9471 7.21669 93.188 8.06085C92.429 8.90502 91.8421 9.92446 91.4679 11.0487C91.0936 12.1729 90.941 13.3752 91.0205 14.5723C90.9414 15.7704 91.0949 16.9735 91.4701 18.0984C91.8454 19.2233 92.4336 20.243 93.194 21.0871C93.9543 21.9312 94.8687 22.5793 95.8738 22.9868C96.879 23.3943 97.9508 23.5513 99.0153 23.447C100.523 23.4002 101.971 22.7724 103.116 21.6686C103.28 21.5124 103.416 21.3212 103.514 21.106C103.612 20.8908 103.672 20.6558 103.689 20.4146C103.706 20.1734 103.681 19.9308 103.615 19.7006C103.548 19.4705 103.442 19.2574 103.302 19.0737C103.162 18.89 102.991 18.7392 102.799 18.63C102.607 18.5209 102.397 18.4556 102.183 18.4378C101.968 18.42 101.752 18.4501 101.548 18.5265C101.344 18.6028 101.155 18.7237 100.993 18.8824C100.405 19.4451 99.6657 19.7631 98.8934 19.7802C98.8513 19.7807 98.8092 19.7831 98.7673 19.7875C98.1644 19.8522 97.5562 19.7663 96.9862 19.5359C96.4163 19.3056 95.8986 18.9365 95.4702 18.4551C95.0419 17.9736 94.7134 17.3917 94.5083 16.751C94.3031 16.1102 94.2264 15.4264 94.2837 14.7484C94.2937 14.6312 94.2937 14.5133 94.2837 14.3961C94.2265 13.7184 94.3031 13.0348 94.5081 12.3942C94.7131 11.7536 95.0414 11.1719 95.4696 10.6905C95.8977 10.2091 96.415 9.83994 96.9847 9.60943C97.5544 9.37892 98.1623 9.29272 98.7651 9.357C98.8172 9.36226 98.8694 9.36471 98.9217 9.36434C99.7266 9.36434 100.606 9.85113 101.674 11.0351C102.742 12.219 103.766 13.836 104.898 15.6339L104.946 15.7073C106.02 17.4147 107.199 19.2836 108.492 20.7195C109.788 22.1554 111.428 23.4152 113.456 23.447C114.519 23.5491 115.59 23.3904 116.593 22.9819C117.597 22.5734 118.51 21.9249 119.268 21.0811C120.027 20.2373 120.614 19.2183 120.989 18.0946C121.363 16.9708 121.516 15.7691 121.438 14.5723C121.558 12.7643 121.148 10.9618 120.27 9.44095C119.392 7.92015 118.095 6.76498 116.578 6.1525C116.12 5.9845 115.647 5.87215 115.168 5.81737V2.83302Z" fill="#4198FF" fill-opacity="0.66"/>
</svg>
