<svg width="375" height="44" viewBox="0 0 375 44" fill="none" xmlns="http://www.w3.org/2000/svg">
<path d="M33.3035 22.8809C33.3035 21.7969 33.6697 20.9082 34.4021 20.2148C35.1395 19.5166 36.0818 19.1675 37.2293 19.1675C38.0008 19.1675 38.6844 19.3457 39.2801 19.7021C39.8758 20.0586 40.3519 20.5762 40.7083 21.2549C41.2063 22.1387 41.4554 23.252 41.4554 24.5947C41.4554 26.3721 41.077 27.7612 40.3201 28.7622C39.5633 29.7583 38.5135 30.2563 37.1707 30.2563C36.2039 30.2563 35.3812 29.9951 34.7024 29.4727C34.0237 28.9453 33.6062 28.2471 33.45 27.3779H35.3323C35.4544 27.7783 35.679 28.0957 36.0062 28.3301C36.3382 28.5596 36.7312 28.6743 37.1854 28.6743C37.9568 28.6743 38.5599 28.335 38.9944 27.6562C39.429 26.9727 39.6463 26.0254 39.6463 24.8145H39.5804H39.5437H39.5218C39.2728 25.3174 38.909 25.708 38.4305 25.9863C37.952 26.2598 37.4026 26.3965 36.7825 26.3965C35.7767 26.3965 34.9441 26.0645 34.285 25.4004C33.6307 24.7363 33.3035 23.8965 33.3035 22.8809ZM35.1565 22.8223C35.1565 23.4277 35.3519 23.9258 35.7425 24.3164C36.1331 24.7021 36.6312 24.895 37.2366 24.895C37.8421 24.895 38.3426 24.7021 38.7381 24.3164C39.1336 23.9307 39.3313 23.4424 39.3313 22.8516C39.3313 22.2559 39.1312 21.7554 38.7308 21.3501C38.3304 20.9448 37.8348 20.7422 37.2439 20.7422C36.6531 20.7422 36.1575 20.9424 35.7571 21.3428C35.3567 21.7383 35.1565 22.2314 35.1565 22.8223ZM43.3746 28.9966C43.3746 28.6597 43.4845 28.3838 43.7042 28.1689C43.9239 27.9492 44.2047 27.8394 44.5465 27.8394C44.8932 27.8394 45.1739 27.9492 45.3888 28.1689C45.6085 28.3838 45.7184 28.6597 45.7184 28.9966C45.7184 29.3286 45.6085 29.6045 45.3888 29.8242C45.1739 30.0439 44.8932 30.1538 44.5465 30.1538C44.2047 30.1538 43.9239 30.0439 43.7042 29.8242C43.4845 29.6045 43.3746 29.3286 43.3746 28.9966ZM43.3746 23.5107C43.3746 23.1738 43.4845 22.8979 43.7042 22.6831C43.9239 22.4634 44.2047 22.3535 44.5465 22.3535C44.8932 22.3535 45.1739 22.4634 45.3888 22.6831C45.6085 22.8979 45.7184 23.1738 45.7184 23.5107C45.7184 23.8428 45.6085 24.1187 45.3888 24.3384C45.1739 24.5532 44.8932 24.6606 44.5465 24.6606C44.2047 24.6606 43.9239 24.5532 43.7042 24.3384C43.4845 24.1187 43.3746 23.8428 43.3746 23.5107ZM47.4105 28.0298V26.3452C48.2699 24.7632 49.7055 22.4585 51.7172 19.4312H54.3832V26.4331H55.8114V28.0298H54.3832V30H52.5741V28.0298H47.4105ZM49.161 26.4771H52.6034V20.9692H52.5009C51.3583 22.6587 50.245 24.458 49.161 26.3672V26.4771ZM57.0861 23.1812V21.3647L59.8474 19.4312H61.7297V30H59.84V21.3354H59.7155L57.0861 23.1812Z" fill="black"/>
<rect opacity="0.35" x="336.833" y="17.8334" width="21" height="10.3333" rx="2.16667" stroke="black"/>
<path opacity="0.4" d="M359.333 21V25C360.138 24.6612 360.661 23.8731 360.661 23C360.661 22.1269 360.138 21.3388 359.333 21Z" fill="black"/>
<rect x="338.333" y="19.3334" width="18" height="7.33333" rx="1.33333" fill="black"/>
<path fill-rule="evenodd" clip-rule="evenodd" d="M323.667 19.6152C325.892 19.6153 328.031 20.4694 329.644 22.001C329.765 22.1192 329.959 22.1177 330.079 21.9976L331.239 20.8273C331.3 20.7664 331.334 20.6839 331.333 20.598C331.333 20.5122 331.298 20.4301 331.237 20.3699C327.005 16.3176 320.329 16.3176 316.097 20.3699C316.035 20.43 316.001 20.5121 316 20.598C315.999 20.6838 316.033 20.7663 316.094 20.8273L317.255 21.9976C317.374 22.1179 317.568 22.1194 317.69 22.001C319.302 20.4693 321.442 19.6152 323.667 19.6152ZM323.667 23.4227C324.889 23.4227 326.068 23.8766 326.974 24.6964C327.097 24.8127 327.29 24.8102 327.409 24.6907L328.569 23.5204C328.63 23.459 328.663 23.3757 328.663 23.2892C328.662 23.2027 328.626 23.1201 328.564 23.0599C325.805 20.4955 321.532 20.4955 318.773 23.0599C318.71 23.1201 318.675 23.2027 318.674 23.2893C318.673 23.3758 318.707 23.4591 318.768 23.5204L319.927 24.6907C320.047 24.8102 320.24 24.8127 320.362 24.6964C321.268 23.8772 322.446 23.4233 323.667 23.4227ZM325.989 25.9846C325.991 26.0714 325.957 26.155 325.895 26.2158L323.89 28.2378C323.831 28.2972 323.751 28.3307 323.667 28.3307C323.583 28.3307 323.503 28.2972 323.445 28.2378L321.439 26.2158C321.377 26.155 321.343 26.0713 321.345 25.9845C321.347 25.8977 321.384 25.8156 321.449 25.7574C322.729 24.6751 324.605 24.6751 325.886 25.7574C325.95 25.8156 325.988 25.8978 325.989 25.9846Z" fill="black"/>
<path fill-rule="evenodd" clip-rule="evenodd" d="M310 17.6666H309C308.448 17.6666 308 18.1143 308 18.6666V27.3333C308 27.8856 308.448 28.3333 309 28.3333H310C310.552 28.3333 311 27.8856 311 27.3333V18.6666C311 18.1143 310.552 17.6666 310 17.6666ZM304.333 20H305.333C305.886 20 306.333 20.4477 306.333 21V27.3333C306.333 27.8856 305.886 28.3333 305.333 28.3333H304.333C303.781 28.3333 303.333 27.8856 303.333 27.3333V21C303.333 20.4477 303.781 20 304.333 20ZM300.667 22.3333H299.667C299.114 22.3333 298.667 22.781 298.667 23.3333V27.3333C298.667 27.8856 299.114 28.3333 299.667 28.3333H300.667C301.219 28.3333 301.667 27.8856 301.667 27.3333V23.3333C301.667 22.781 301.219 22.3333 300.667 22.3333ZM296 24.3333H295C294.448 24.3333 294 24.781 294 25.3333V27.3333C294 27.8856 294.448 28.3333 295 28.3333H296C296.552 28.3333 297 27.8856 297 27.3333V25.3333C297 24.781 296.552 24.3333 296 24.3333Z" fill="black"/>
</svg>
