<svg width="215" height="97" viewBox="0 0 215 97" fill="none" xmlns="http://www.w3.org/2000/svg">
<path d="M25.0809 33.9884L30.0236 29.4259C26.6778 24.5592 20.2649 23.3425 17.4767 23.3425C10.785 23.0384 5.81687 27.0179 4.16929 29.0457C-1.47092 36.6334 1.63456 46.0285 4.16929 49.5771C7.27393 54.5033 14.3083 55.6605 17.4767 55.6605C25.0809 55.9646 29.0097 51.7316 30.0236 49.5771L25.0809 44.6344C23.2559 47.9802 19.251 48.5632 17.4767 48.4365C13.8267 48.4365 11.1398 45.6482 10.2527 44.2541C7.51515 39.6916 9.11204 35.5093 10.2527 33.9884C12.0777 31.2509 15.8291 30.5665 17.4767 30.5665C21.735 30.2624 24.3205 32.7211 25.0809 33.9884Z" fill="#4198FF" stroke="#4198FF"/>
<path fill-rule="evenodd" clip-rule="evenodd" d="M43.9318 31.3458C39.6228 31.0924 31.0047 33.1709 31.0047 43.5126C30.8779 47.5682 33.2859 55.6793 43.9318 55.6793C48.3676 55.8061 57.3153 53.5502 57.6194 43.5126C57.7462 39.457 55.1861 31.3458 43.9318 31.3458ZM43.9319 37.4292C45.7062 37.4292 49.2548 38.6459 49.2548 43.5126C49.2548 45.6671 48.1902 49.9002 43.9319 49.596C42.2843 49.596 38.9891 48.3793 38.9891 43.5126C38.8624 41.6116 39.6735 37.7334 43.9319 37.4292Z" fill="#4198FF"/>
<path d="M31.0047 43.5126L31.5044 43.5282L31.5047 43.5204V43.5126H31.0047ZM43.9318 31.3458L43.9025 31.845L43.9171 31.8458H43.9318V31.3458ZM43.9318 55.6793L43.9461 55.1795L43.939 55.1793H43.9318V55.6793ZM57.6194 43.5126L57.1197 43.497L57.1197 43.4975L57.6194 43.5126ZM43.9319 37.4292V36.9292H43.914L43.8962 36.9305L43.9319 37.4292ZM43.9319 49.596L43.9675 49.0973L43.9497 49.096H43.9319V49.596ZM38.9891 43.5126H39.4891V43.496L39.488 43.4794L38.9891 43.5126ZM31.5047 43.5126C31.5047 38.5063 33.5777 35.5594 36.1281 33.8731C38.7093 32.1665 41.8264 31.7229 43.9025 31.845L43.9612 30.8467C41.7282 30.7154 38.3817 31.1842 35.5766 33.0389C32.7407 34.914 30.5047 38.1772 30.5047 43.5126H31.5047ZM43.9318 55.1793C38.7541 55.1793 35.643 53.2161 33.8273 50.8152C31.9931 48.3898 31.4438 45.467 31.5044 43.5282L30.5049 43.497C30.4388 45.6138 31.0301 48.7743 33.0297 51.4184C35.0478 54.087 38.4637 56.1793 43.9318 56.1793V55.1793ZM57.1197 43.4975C56.9729 48.3407 54.7549 51.2664 52.0563 52.9859C49.3306 54.7226 46.0897 55.2408 43.9461 55.1795L43.9176 56.1791C46.2098 56.2446 49.6605 55.6982 52.5937 53.8293C55.5539 51.9431 57.9618 48.7221 58.1192 43.5277L57.1197 43.4975ZM43.9318 31.8458C49.4244 31.8458 52.7275 33.8175 54.6533 36.221C56.5964 38.6462 57.1801 41.5648 57.1197 43.497L58.1192 43.5282C58.1855 41.4048 57.5525 38.2401 55.4337 35.5957C53.2976 32.9298 49.6935 30.8458 43.9318 30.8458V31.8458ZM49.7548 43.5126C49.7548 40.9426 48.8104 39.2752 47.5764 38.2598C46.3629 37.2613 44.9138 36.9292 43.9319 36.9292V37.9292C44.7242 37.9292 45.9366 38.2055 46.941 39.032C47.925 39.8417 48.7548 41.2159 48.7548 43.5126H49.7548ZM43.8962 50.0947C46.2366 50.2619 47.7334 49.1639 48.6153 47.7395C49.477 46.3478 49.7548 44.6514 49.7548 43.5126H48.7548C48.7548 44.5284 48.5003 46.0257 47.7651 47.2131C47.0502 48.3678 45.8855 49.2343 43.9675 49.0973L43.8962 50.0947ZM38.4891 43.5126C38.4891 46.0695 39.3604 47.7339 40.511 48.7535C41.6448 49.7582 43.0039 50.096 43.9319 50.096V49.096C43.2123 49.096 42.0999 48.8254 41.1743 48.0051C40.2654 47.1997 39.4891 45.8224 39.4891 43.5126H38.4891ZM43.8962 36.9305C41.5898 37.0953 40.1793 38.2436 39.3831 39.622C38.6029 40.9728 38.422 42.522 38.4902 43.5459L39.488 43.4794C39.4295 42.6021 39.5908 41.2617 40.2491 40.1222C40.8914 39.0102 42.0156 38.0674 43.9675 37.928L43.8962 36.9305Z" fill="#4198FF"/>
<rect x="62.5941" y="23.326" width="8.36464" height="32.6981" fill="#4198FF"/>
<rect x="76.2817" y="23.326" width="8.36464" height="32.6981" fill="#4198FF"/>
<path fill-rule="evenodd" clip-rule="evenodd" d="M103.573 41.9849C103.573 40.7175 102.66 38.1828 99.0102 38.1828C97.6161 38.1828 94.3716 38.4869 92.5466 39.7036L89.5049 34.7609C90.7723 33.6202 94.5237 31.415 99.3904 31.7192C103.446 31.7192 111.557 33.6963 111.557 41.6047V56.0527H104.713V52.6308C104.587 53.7714 102.888 56.0527 97.1091 56.0527C94.8279 56.0527 89.9612 55.0641 88.7445 51.1099C87.8573 48.7019 88.7445 42.3651 94.4477 41.9849L103.573 41.9849ZM103.192 45.7869H99.0102C98.123 45.7869 96.3487 46.2432 96.3487 48.0682C96.2219 49.2088 96.7289 51.4141 99.7706 51.1099C101.165 51.1251 103.877 50.0818 103.573 45.7869H103.192Z" fill="#4198FF"/>
<path d="M103.573 41.9849L103.573 42.4849L104.073 42.4849V41.9849H103.573ZM92.5466 39.7036L92.1208 39.9657L92.3925 40.4072L92.824 40.1196L92.5466 39.7036ZM89.5049 34.7609L89.1704 34.3892L88.8607 34.668L89.0791 35.0229L89.5049 34.7609ZM99.3904 31.7192L99.3592 32.2182L99.3748 32.2192L99.3904 32.2192L99.3904 31.7192ZM111.557 56.0527V56.5527H112.057V56.0527H111.557ZM104.713 56.0527H104.213V56.5527H104.713V56.0527ZM104.713 52.6308H105.213L104.216 52.5756L104.713 52.6308ZM88.7445 51.1099L89.2224 50.9629L89.2184 50.9499L89.2137 50.9371L88.7445 51.1099ZM94.4477 41.9849L94.4477 41.4849L94.431 41.4849L94.4144 41.486L94.4477 41.9849ZM96.3487 48.0682L96.8456 48.1234L96.8487 48.0959V48.0682H96.3487ZM99.7706 51.1099L99.776 50.6099L99.7484 50.6096L99.7208 50.6124L99.7706 51.1099ZM103.573 45.7869L104.071 45.7516L104.039 45.2869H103.573V45.7869ZM99.0102 38.6828C100.707 38.6828 101.703 39.2658 102.282 39.9354C102.876 40.6232 103.073 41.4521 103.073 41.9849H104.073C104.073 41.2503 103.813 40.1781 103.039 39.2817C102.248 38.3671 100.963 37.6828 99.0102 37.6828V38.6828ZM92.824 40.1196C93.6528 39.567 94.8417 39.2022 96.0324 38.9783C97.2133 38.7563 98.3419 38.6828 99.0102 38.6828V37.6828C98.2844 37.6828 97.0937 37.7613 95.8476 37.9955C94.6113 38.228 93.2654 38.6235 92.2693 39.2876L92.824 40.1196ZM89.0791 35.0229L92.1208 39.9657L92.9724 39.4416L89.9308 34.4988L89.0791 35.0229ZM99.4216 31.2202C94.3986 30.9062 90.5197 33.1749 89.1704 34.3892L89.8394 35.1325C91.0249 34.0656 94.6488 31.9238 99.3592 32.2182L99.4216 31.2202ZM112.057 41.6047C112.057 37.4397 109.904 34.8191 107.247 33.2647C104.615 31.7252 101.48 31.2192 99.3904 31.2192L99.3904 32.2192C101.356 32.2192 104.304 32.7017 106.742 34.1279C109.155 35.5391 111.057 37.8613 111.057 41.6047H112.057ZM112.057 56.0527V41.6047H111.057V56.0527H112.057ZM104.713 56.5527H111.557V55.5527H104.713V56.5527ZM104.213 52.6308V56.0527H105.213V52.6308H104.213ZM97.1091 56.5527C102.967 56.5527 105.04 54.2231 105.21 52.686L104.216 52.5756C104.134 53.3198 102.81 55.5527 97.1091 55.5527V56.5527ZM88.2666 51.257C88.9316 53.4182 90.5899 54.7434 92.3231 55.5204C94.0527 56.2957 95.9116 56.5527 97.1091 56.5527V55.5527C96.0254 55.5527 94.3104 55.3154 92.7321 54.6079C91.1575 53.902 89.7741 52.7559 89.2224 50.9629L88.2666 51.257ZM94.4144 41.486C91.3381 41.6911 89.5467 43.5217 88.6648 45.5909C87.7984 47.6235 87.7815 49.9425 88.2753 51.2828L89.2137 50.9371C88.8203 49.8694 88.8034 47.8159 89.5847 45.983C90.3503 44.1868 91.8541 42.6589 94.4809 42.4838L94.4144 41.486ZM103.573 41.4849L94.4477 41.4849L94.4477 42.4849L103.573 42.4849L103.573 41.4849ZM99.0102 46.2869H103.192V45.2869H99.0102V46.2869ZM96.8487 48.0682C96.8487 47.3534 97.1805 46.9334 97.6093 46.6687C98.0648 46.3876 98.6326 46.2869 99.0102 46.2869V45.2869C98.5006 45.2869 97.7376 45.4144 97.0841 45.8177C96.4041 46.2374 95.8487 46.958 95.8487 48.0682H96.8487ZM99.7208 50.6124C98.3366 50.7508 97.637 50.319 97.2717 49.8312C96.8791 49.3069 96.7915 48.6102 96.8456 48.1234L95.8517 48.013C95.7791 48.6668 95.8816 49.6431 96.4712 50.4305C97.0882 51.2545 98.1629 51.7732 99.8203 51.6074L99.7208 50.6124ZM103.074 45.8223C103.218 47.8554 102.647 49.0346 101.959 49.7071C101.255 50.3951 100.364 50.6163 99.776 50.6099L99.7651 51.6099C100.571 51.6187 101.733 51.3259 102.658 50.4223C103.598 49.5032 104.232 48.0134 104.071 45.7516L103.074 45.8223ZM103.192 46.2869H103.573V45.2869H103.192V46.2869Z" fill="#4198FF"/>
<path fill-rule="evenodd" clip-rule="evenodd" d="M124.949 23.326H116.584V55.644H124.949V52.9825C125.456 53.8697 127.382 55.644 131.032 55.644C135.088 55.8974 143.199 53.819 143.199 43.4772C143.326 39.2949 141.07 31.0063 131.032 31.3105C129.638 31.3105 126.47 31.8428 124.949 33.972V23.326ZM124.949 43.4773C124.949 41.5762 125.937 37.7741 129.891 37.7741C131.666 37.6474 135.29 38.6106 135.595 43.4773C135.595 45.505 134.454 49.4846 129.891 49.1804C128.371 49.1804 125.253 48.0398 124.949 43.4773Z" fill="#4198FF"/>
<path d="M116.584 23.326V22.826H116.084V23.326H116.584ZM124.949 23.326H125.449V22.826H124.949V23.326ZM116.584 55.644H116.084V56.144H116.584V55.644ZM124.949 55.644V56.144H125.449V55.644H124.949ZM124.949 52.9825L125.383 52.7344L124.449 51.0997V52.9825H124.949ZM131.032 55.644L131.063 55.1449L131.048 55.144H131.032V55.644ZM143.199 43.4772L142.699 43.4621L142.699 43.4697V43.4772H143.199ZM131.032 31.3105V31.8105H131.04L131.047 31.8102L131.032 31.3105ZM124.949 33.972H124.449V35.5322L125.356 34.2626L124.949 33.972ZM129.891 37.7741V38.2741H129.909L129.927 38.2728L129.891 37.7741ZM124.949 43.4773H124.449V43.4939L124.45 43.5105L124.949 43.4773ZM135.595 43.4773H136.095V43.4616L136.094 43.4461L135.595 43.4773ZM129.891 49.1804L129.925 48.6815L129.908 48.6804H129.891V49.1804ZM116.584 23.826H124.949V22.826H116.584V23.826ZM117.084 55.644V23.326H116.084V55.644H117.084ZM124.949 55.144H116.584V56.144H124.949V55.144ZM124.449 52.9825V55.644H125.449V52.9825H124.449ZM131.032 55.144C127.546 55.144 125.793 53.4526 125.383 52.7344L124.515 53.2306C125.118 54.2867 127.218 56.144 131.032 56.144V55.144ZM142.699 43.4772C142.699 48.4966 140.741 51.444 138.349 53.1247C135.928 54.8253 133.006 55.2664 131.063 55.1449L131.001 56.143C133.113 56.275 136.275 55.8036 138.924 53.9429C141.601 52.0623 143.699 48.7995 143.699 43.4772H142.699ZM131.047 31.8102C135.902 31.6631 138.815 33.5829 140.518 35.9995C142.244 38.4464 142.76 41.4496 142.699 43.4621L143.699 43.4924C143.764 41.3225 143.216 38.0902 141.336 35.4233C139.434 32.7261 136.2 30.6537 131.017 30.8107L131.047 31.8102ZM125.356 34.2626C126.033 33.3139 127.099 32.696 128.201 32.3154C129.301 31.9357 130.386 31.8105 131.032 31.8105V30.8105C130.284 30.8105 129.088 30.9514 127.875 31.3701C126.664 31.788 125.385 32.5008 124.542 33.6813L125.356 34.2626ZM124.449 23.326V33.972H125.449V23.326H124.449ZM129.891 37.2741C127.719 37.2741 126.333 38.3338 125.513 39.6481C124.71 40.9356 124.449 42.4598 124.449 43.4773H125.449C125.449 42.5936 125.682 41.2663 126.361 40.1775C127.024 39.1154 128.109 38.2741 129.891 38.2741V37.2741ZM136.094 43.4461C135.933 40.8762 134.884 39.2748 133.585 38.3463C132.308 37.4336 130.837 37.2053 129.856 37.2754L129.927 38.2728C130.72 38.2162 131.949 38.406 133.004 39.1599C134.036 39.8981 134.952 41.2116 135.096 43.5084L136.094 43.4461ZM129.858 49.6793C132.318 49.8433 133.909 48.8407 134.862 47.4919C135.793 46.1751 136.095 44.5637 136.095 43.4773H135.095C135.095 44.4186 134.826 45.8109 134.046 46.9147C133.288 47.9866 132.028 48.8217 129.925 48.6815L129.858 49.6793ZM124.45 43.5105C124.61 45.9121 125.519 47.4689 126.64 48.4209C127.747 49.3605 129.024 49.6804 129.891 49.6804V48.6804C129.238 48.6804 128.196 48.43 127.287 47.6586C126.394 46.8997 125.592 45.6049 125.448 43.444L124.45 43.5105Z" fill="#4198FF"/>
<path fill-rule="evenodd" clip-rule="evenodd" d="M187.676 26.0023C187.676 25.4728 187.519 24.9554 187.224 24.5154C186.93 24.0753 186.512 23.7324 186.023 23.5298C185.533 23.3273 184.995 23.2742 184.476 23.3774C183.957 23.4805 183.48 23.7353 183.105 24.1094L176.269 30.9416C175.825 31.3741 175.545 31.9477 175.477 32.5641C175.409 33.1806 175.558 33.8014 175.898 34.3201C176.142 34.6935 176.475 35.0002 176.867 35.2122C177.259 35.4242 177.698 35.535 178.144 35.5344H184.987L185.048 35.538C185.477 35.549 185.906 35.5728 186.334 35.6094C187.201 35.6808 187.898 35.788 188.18 35.8916C189.59 36.3995 190.792 37.3625 191.594 38.6287C192.397 39.8949 192.755 41.3921 192.612 42.8844C192.596 43.0543 192.596 43.2253 192.612 43.3951C192.707 44.3849 192.581 45.3834 192.245 46.3191C191.909 47.2547 191.37 48.1046 190.667 48.8078C189.964 49.5111 189.114 50.0504 188.179 50.3871C187.243 50.7239 186.245 50.8498 185.255 50.7558C185.17 50.7481 185.084 50.7445 184.998 50.7451C183.676 50.7451 182.234 50.0308 180.48 48.3023C178.726 46.5737 177.044 44.2166 175.187 41.5916L175.109 41.4773C173.344 38.9916 171.409 36.2594 169.287 34.163C167.159 32.0666 164.466 30.2273 161.137 30.1808C159.391 30.0312 157.633 30.2625 155.985 30.8589C154.337 31.4553 152.838 32.4024 151.592 33.6349C150.346 34.8674 149.382 36.3558 148.768 37.9972C148.154 39.6386 147.903 41.3938 148.034 43.1416C147.904 44.8908 148.156 46.6474 148.772 48.2897C149.388 49.9321 150.354 51.4209 151.602 52.6532C152.85 53.8855 154.351 54.8319 156.001 55.4268C157.651 56.0217 159.411 56.251 161.159 56.0987C163.634 56.0303 166.011 55.1137 167.891 53.5023C168.161 53.2742 168.383 52.995 168.544 52.6808C168.706 52.3666 168.803 52.0235 168.832 51.6714C168.86 51.3193 168.818 50.965 168.709 50.629C168.6 50.293 168.426 49.9819 168.196 49.7136C167.966 49.4454 167.685 49.2252 167.37 49.0659C167.054 48.9066 166.711 48.8112 166.358 48.7852C166.006 48.7593 165.652 48.8033 165.317 48.9147C164.982 49.0261 164.672 49.2027 164.405 49.4344C163.441 50.2558 162.226 50.7201 160.959 50.7451C160.889 50.7459 160.82 50.7494 160.751 50.7558C159.762 50.8502 158.763 50.7248 157.828 50.3885C156.892 50.0522 156.042 49.5134 155.339 48.8105C154.636 48.1076 154.096 47.258 153.759 46.3224C153.423 45.3869 153.297 44.3885 153.391 43.3987C153.407 43.2277 153.407 43.0554 153.391 42.8844C153.297 41.8949 153.423 40.8969 153.759 39.9616C154.096 39.0264 154.635 38.177 155.338 37.4741C156.04 36.7713 156.89 36.2324 157.825 35.8958C158.76 35.5593 159.758 35.4334 160.748 35.5273C160.833 35.535 160.919 35.5385 161.005 35.538C162.326 35.538 163.769 36.2487 165.523 37.9773C167.276 39.7058 168.959 42.0666 170.816 44.6916L170.894 44.7987C172.659 47.2916 174.594 50.0201 176.716 52.1166C178.844 54.213 181.537 56.0523 184.866 56.0987C186.612 56.2477 188.369 56.016 190.016 55.4196C191.664 54.8232 193.162 53.8763 194.408 52.6444C195.654 51.4125 196.618 49.9248 197.232 48.2841C197.847 46.6434 198.099 44.8889 197.969 43.1416C198.167 40.5019 197.494 37.8702 196.053 35.6498C194.612 33.4295 192.482 31.7429 189.991 30.8487C189.239 30.6034 188.463 30.4394 187.676 30.3594V26.0023Z" fill="#4198FF" fill-opacity="0.66"/>
<path d="M187.57 15.6706L185.421 3.80913L193.928 5.4294L187.57 15.6706Z" fill="#4198FF"/>
<path d="M194.206 18.6483L196.645 6.84297L203.931 11.5245L194.206 18.6483Z" fill="#4198FF"/>
<path d="M198.556 22.7003L206.672 13.787L210.554 21.5286L198.556 22.7003Z" fill="#4198FF"/>
</svg>
